<svg width="48" height="48" viewBox="0 0 48 48" fill="none" xmlns="http://www.w3.org/2000/svg">
<path d="M24 44C21.2333 44 18.6333 43.475 16.2 42.425C13.7667 41.375 11.65 39.95 9.85 38.15C8.05 36.35 6.625 34.2333 5.575 31.8C4.525 29.3667 4 26.7667 4 24H8C8 27.8333 9.20833 31.2167 11.625 34.15C14.0417 37.0833 17.1333 38.9333 20.9 39.7L18 36.8L20.8 34L29.9 43.1C28.9333 43.4333 27.9583 43.6667 26.975 43.8C25.9917 43.9333 25 44 24 44ZM25 30V18H31C31.5667 18 32.0417 18.1917 32.425 18.575C32.8083 18.9583 33 19.4333 33 20V28C33 28.5667 32.8083 29.0417 32.425 29.425C32.0417 29.8083 31.5667 30 31 30H25ZM15 30V27H20V25H17V23H20V21H15V18H21C21.5667 18 22.0417 18.1917 22.425 18.575C22.8083 18.9583 23 19.4333 23 20V28C23 28.5667 22.8083 29.0417 22.425 29.425C22.0417 29.8083 21.5667 30 21 30H15ZM28 27H30V21H28V27ZM40 24C40 20.1667 38.7917 16.7833 36.375 13.85C33.9583 10.9167 30.8667 9.06667 27.1 8.3L30 11.2L27.2 14L18.1 4.9C19.0667 4.56667 20.0417 4.33333 21.025 4.2C22.0083 4.06667 23 4 24 4C26.7667 4 29.3667 4.525 31.8 5.575C34.2333 6.625 36.35 8.05 38.15 9.85C39.95 11.65 41.375 13.7667 42.425 16.2C43.475 18.6333 44 21.2333 44 24H40Z" fill="#242424"/>
</svg>
