<svg width="48" height="48" viewBox="0 0 48 48" fill="none" xmlns="http://www.w3.org/2000/svg">
<g clip-path="url(#clip0_2337_2800)">
<path d="M28.7 35.8995C28.14 37.6795 26.68 39.1395 24.9 39.6995C21.88 40.6595 19.02 39.2395 17.72 36.8595C17.02 35.5595 18.06 33.9995 19.54 33.9995H19.56C20.24 33.9995 20.92 34.3195 21.24 34.9195C21.58 35.5595 22.24 35.9995 23.02 35.9995C24.12 35.9995 25.02 35.0995 25.02 33.9995C25.02 32.8995 24.12 31.9995 23.02 31.9995H6C4.9 31.9995 4 31.0995 4 29.9995C4 28.8995 4.9 27.9995 6 27.9995H23C26.92 27.9995 30 31.7995 28.7 35.8995ZM37.82 11.3395C37.24 8.81954 35.18 6.75954 32.66 6.17954C29.14 5.37954 25.92 7.23954 24.62 10.1395C24 11.4795 24.96 12.9995 26.42 12.9995C27.2 12.9995 27.92 12.5595 28.22 11.8595C28.68 10.7595 29.74 9.99954 31 9.99954C32.66 9.99954 34 11.3395 34 12.9995C34 14.6595 32.66 15.9995 31 15.9995H6C4.9 15.9995 4 16.8995 4 17.9995C4 19.0995 4.9 19.9995 6 19.9995H31C35.4 19.9995 38.86 15.9195 37.82 11.3395ZM36.8 21.9995H6C4.9 21.9995 4 22.8995 4 23.9995C4 25.0995 4.9 25.9995 6 25.9995H37C38.66 25.9995 40 27.3395 40 28.9995C40 30.2595 39.24 31.3195 38.14 31.7795C37.42 32.0795 37 32.7995 37 33.5795C37 35.0395 38.52 35.9995 39.86 35.3995C42.72 34.1195 44.56 30.9795 43.86 27.5395C43.18 24.2595 40.14 21.9995 36.8 21.9995Z" fill="white"/>
</g>
<defs>
<clipPath id="clip0_2337_2800">
<rect width="48" height="48" fill="white"/>
</clipPath>
</defs>
</svg>
