<svg width="340" height="397" viewBox="0 0 340 397" fill="none" xmlns="http://www.w3.org/2000/svg">
<rect x="40" y="57" width="262" height="198" rx="9" stroke="black" stroke-width="2"/>
<rect x="41" y="68" width="260" height="2" fill="black"/>
<rect x="41" y="242" width="260" height="2" fill="black"/>
<rect x="238" y="226" width="48" height="2" rx="1" fill="black"/>
<rect x="238" y="206" width="48" height="2" rx="1" fill="black"/>
<rect x="238" y="186" width="48" height="2" rx="1" fill="black"/>
<rect x="238" y="109" width="48" height="2" rx="1" fill="black"/>
<rect x="238" y="89" width="48" height="2" rx="1" fill="black"/>
<rect x="221" y="244" width="176" height="2" transform="rotate(-90 221 244)" fill="black"/>
<circle cx="130" cy="155" r="76" stroke="black" stroke-width="2"/>
<rect x="61" width="11" height="56" fill="url(#paint0_linear_2355_262)"/>
<path d="M60 58C59.4477 58 59 57.5523 59 57L59 1C59 0.447716 59.4477 0 60 0C60.5523 0 61 0.447716 61 1V57C61 57.5523 60.5523 58 60 58Z" fill="url(#paint1_linear_2355_262)"/>
<path d="M73 58C72.4477 58 72 57.5523 72 57V1C72 0.447716 72.4477 0 73 0C73.5523 0 74 0.447716 74 1V57C74 57.5523 73.5523 58 73 58Z" fill="url(#paint2_linear_2355_262)"/>
<path d="M26 208C26 211.314 28.6863 214 32 214H39V227H29C20.1634 227 13 219.837 13 211L13 0H26V208Z" fill="url(#paint3_linear_2355_262)"/>
<path d="M14 211C14 219.284 20.7157 226 29 226H39V228H29C19.6112 228 12 220.389 12 211V0H14V211Z" fill="url(#paint4_linear_2355_262)"/>
<path d="M27 208C27 210.761 29.2386 213 32 213H39V215H32C28.134 215 25 211.866 25 208V0H27V208Z" fill="url(#paint5_linear_2355_262)"/>
<rect x="281" y="397" width="11" height="141" transform="rotate(180 281 397)" fill="url(#paint6_linear_2355_262)"/>
<path d="M282 254C282.552 254 283 254.448 283 255V396C283 396.552 282.552 397 282 397C281.448 397 281 396.552 281 396V255C281 254.448 281.448 254 282 254Z" fill="url(#paint7_linear_2355_262)"/>
<path d="M269 254C269.552 254 270 254.448 270 255V396C270 396.552 269.552 397 269 397C268.448 397 268 396.552 268 396V255C268 254.448 268.448 254 269 254Z" fill="url(#paint8_linear_2355_262)"/>
<path d="M316 104C316 100.686 313.314 98 310 98H303V85H313C321.837 85 329 92.1635 329 101L329 397H316V104Z" fill="url(#paint9_linear_2355_262)"/>
<path d="M328 101C328 92.7157 321.284 86 313 86H303V84H313C322.389 84 330 91.6111 330 101V397H328V101Z" fill="url(#paint10_linear_2355_262)"/>
<path d="M315 104C315 101.239 312.761 99 310 99H303V97H310C313.866 97 317 100.134 317 104V397H315L315 104Z" fill="url(#paint11_linear_2355_262)"/>
<path d="M170 254C170.552 254 171 254.448 171 255C171 255.552 170.552 256 170 256H101V285H155C155.552 285 156 285.448 156 286C156 286.552 155.552 287 155 287H55V316H119C119.552 316 120 316.448 120 317C120 317.552 119.552 318 119 318H3C2.44772 318 2 317.552 2 317C2 316.448 2.44772 316 3 316H53V287H21C20.4477 287 20 286.552 20 286C20 285.448 20.4477 285 21 285H99V256H50C49.4477 256 49 255.552 49 255C49 254.448 49.4477 254 50 254H170Z" fill="black" fill-opacity="0.2"/>
<defs>
<linearGradient id="paint0_linear_2355_262" x1="66.5" y1="0" x2="66.5" y2="56" gradientUnits="userSpaceOnUse">
<stop stop-color="#B6B2FF" stop-opacity="0"/>
<stop offset="1" stop-color="#B6B2FF"/>
</linearGradient>
<linearGradient id="paint1_linear_2355_262" x1="59.5" y1="0" x2="59.5" y2="58" gradientUnits="userSpaceOnUse">
<stop stop-opacity="0"/>
<stop offset="1"/>
</linearGradient>
<linearGradient id="paint2_linear_2355_262" x1="73.5" y1="0" x2="73.5" y2="58" gradientUnits="userSpaceOnUse">
<stop stop-opacity="0"/>
<stop offset="1"/>
</linearGradient>
<linearGradient id="paint3_linear_2355_262" x1="26" y1="0" x2="26" y2="227" gradientUnits="userSpaceOnUse">
<stop stop-color="#B6B2FF" stop-opacity="0"/>
<stop offset="1" stop-color="#B6B2FF"/>
</linearGradient>
<linearGradient id="paint4_linear_2355_262" x1="25.5" y1="0" x2="25.5" y2="228" gradientUnits="userSpaceOnUse">
<stop stop-opacity="0"/>
<stop offset="1"/>
</linearGradient>
<linearGradient id="paint5_linear_2355_262" x1="32" y1="0" x2="32" y2="215" gradientUnits="userSpaceOnUse">
<stop stop-opacity="0"/>
<stop offset="1"/>
</linearGradient>
<linearGradient id="paint6_linear_2355_262" x1="286.5" y1="397" x2="286.5" y2="538" gradientUnits="userSpaceOnUse">
<stop stop-color="#FFACAE" stop-opacity="0"/>
<stop offset="1" stop-color="#FFACAE"/>
</linearGradient>
<linearGradient id="paint7_linear_2355_262" x1="282.5" y1="397" x2="282.5" y2="254" gradientUnits="userSpaceOnUse">
<stop stop-opacity="0"/>
<stop offset="1"/>
</linearGradient>
<linearGradient id="paint8_linear_2355_262" x1="268.5" y1="397" x2="268.5" y2="254" gradientUnits="userSpaceOnUse">
<stop stop-opacity="0"/>
<stop offset="1"/>
</linearGradient>
<linearGradient id="paint9_linear_2355_262" x1="316" y1="397" x2="316" y2="85" gradientUnits="userSpaceOnUse">
<stop stop-color="#FFACAE" stop-opacity="0"/>
<stop offset="1" stop-color="#FFACAE"/>
</linearGradient>
<linearGradient id="paint10_linear_2355_262" x1="316.5" y1="397" x2="316.5" y2="84" gradientUnits="userSpaceOnUse">
<stop stop-opacity="0"/>
<stop offset="1"/>
</linearGradient>
<linearGradient id="paint11_linear_2355_262" x1="310" y1="397" x2="310" y2="96.9999" gradientUnits="userSpaceOnUse">
<stop stop-opacity="0"/>
<stop offset="1"/>
</linearGradient>
</defs>
</svg>
