<svg width="48" height="48" viewBox="0 0 48 48" fill="none" xmlns="http://www.w3.org/2000/svg">
<path d="M14 37.2C15.6667 37.2 17.0833 36.6167 18.25 35.45C19.4167 34.2833 20 32.8667 20 31.2V19.2C20 18.6333 20.1917 18.1583 20.575 17.775C20.9583 17.3917 21.4333 17.2 22 17.2C22.5667 17.2 23.0417 17.3917 23.425 17.775C23.8083 18.1583 24 18.6333 24 19.2V31.2C24 32.8667 24.5833 34.2833 25.75 35.45C26.9167 36.6167 28.3333 37.2 30 37.2C31.6667 37.2 33.0833 36.6167 34.25 35.45C35.4167 34.2833 36 32.8667 36 31.2V17.2C36 16.6333 36.1917 16.1583 36.575 15.775C36.9583 15.3917 37.4333 15.2 38 15.2H40.35L38 17.5L40.8 20.35L48 13.2L40.8 6L38 8.85L40.35 11.2H38C36.3333 11.2 34.9167 11.7833 33.75 12.95C32.5833 14.1167 32 15.5333 32 17.2V31.2C32 31.7667 31.8083 32.2417 31.425 32.625C31.0417 33.0083 30.5667 33.2 30 33.2C29.4333 33.2 28.9583 33.0083 28.575 32.625C28.1917 32.2417 28 31.7667 28 31.2V19.2C28 17.5333 27.4167 16.1167 26.25 14.95C25.0833 13.7833 23.6667 13.2 22 13.2C20.3333 13.2 18.9167 13.7833 17.75 14.95C16.5833 16.1167 16 17.5333 16 19.2V31.2C16 31.7667 15.8083 32.2417 15.425 32.625C15.0417 33.0083 14.5667 33.2 14 33.2C13.4333 33.2 12.9583 33.0083 12.575 32.625C12.1917 32.2417 12 31.7667 12 31.2V13.2H8V31.2C8 32.8667 8.58333 34.2833 9.75 35.45C10.9167 36.6167 12.3333 37.2 14 37.2ZM6 43.2C4.9 43.2 3.95833 42.8083 3.175 42.025C2.39167 41.2417 2 40.3 2 39.2V23.2H46V39.2C46 40.3 45.6083 41.2417 44.825 42.025C44.0417 42.8083 43.1 43.2 42 43.2H6Z" fill="white"/>
</svg>
