<svg width="138" height="138" viewBox="0 0 138 138" fill="none" xmlns="http://www.w3.org/2000/svg">
<circle cx="69" cy="69" r="69" fill="black"/>
<path d="M52.627 86.4311C53.3912 85.6826 54.6036 85.6754 55.4463 86.3344C55.8522 86.6519 56.2714 86.9563 56.7021 87.2465C56.7385 87.271 56.775 87.2954 56.8115 87.3197C56.9349 87.4017 57.0593 87.4832 57.1846 87.5629C57.2238 87.5878 57.2633 87.6124 57.3027 87.6371C57.7624 87.9252 58.2355 88.1968 58.7207 88.4525C58.7744 88.4808 58.8288 88.5096 58.8828 88.5375C59.0189 88.6078 59.1559 88.6769 59.2939 88.7445C59.3252 88.7599 59.3573 88.7752 59.3887 88.7904C59.7255 88.9536 60.068 89.1092 60.416 89.2563C60.4692 89.2787 60.5228 89.3006 60.5762 89.3227C60.699 89.3734 60.8221 89.4243 60.9463 89.473C61.0041 89.4957 61.063 89.5172 61.1211 89.5395C61.2477 89.5879 61.3749 89.6357 61.5029 89.682C61.5592 89.7024 61.6163 89.7226 61.6729 89.7426C61.8478 89.8043 62.0237 89.8646 62.2012 89.9223C62.3979 89.9862 62.5958 90.0478 62.793 90.1059C62.8718 90.1291 62.9514 90.1509 63.0303 90.1732C63.1503 90.2072 63.2704 90.2401 63.3906 90.2719C63.4679 90.2923 63.5457 90.3138 63.623 90.3334C64.0278 90.4358 64.4334 90.5253 64.8389 90.6039C64.8934 90.6145 64.9484 90.624 65.0029 90.6342C65.1452 90.6606 65.2874 90.6858 65.4297 90.7094C65.5087 90.7225 65.588 90.7362 65.667 90.7484C65.7718 90.7646 65.8767 90.7787 65.9814 90.7934C66.1298 90.8141 66.2785 90.8334 66.4268 90.851C66.5683 90.8678 66.7101 90.8838 66.8516 90.8979C66.9079 90.9034 66.9642 90.9093 67.0205 90.9145C67.641 90.971 68.2605 91.0007 68.877 91.0043C68.9371 91.0046 68.9975 91.0044 69.0576 91.0043C69.4243 91.0034 69.79 90.9942 70.1543 90.975C71.5286 90.9025 72.7261 92.0668 72.5176 93.4252L66.5332 131.212C66.3682 132.194 65.5063 132.906 64.5146 132.855C62.289 132.697 60.0557 132.421 57.8232 132.023C57.1144 131.896 56.4058 131.756 55.6973 131.605C55.5649 131.577 55.4321 131.547 55.2998 131.518C53.7196 131.17 52.1411 130.76 50.5674 130.286C50.465 130.255 50.3621 130.225 50.2598 130.194C49.9141 130.088 49.5678 129.979 49.2227 129.867C48.8253 129.737 48.4302 129.604 48.0371 129.468C44.8796 128.375 41.8611 127.057 38.9932 125.539C38.9549 125.519 38.9161 125.499 38.8779 125.479C38.2234 125.131 37.5771 124.772 36.9385 124.403C36.8109 124.329 36.6836 124.255 36.5566 124.18C35.9016 123.796 35.2549 123.401 34.6172 122.996C34.5843 122.975 34.5504 122.954 34.5176 122.933C33.3777 122.205 32.2657 121.444 31.1826 120.651C31.1125 120.599 31.0425 120.548 30.9727 120.496C30.6993 120.295 30.4279 120.09 30.1582 119.884C30.1296 119.862 30.0999 119.842 30.0713 119.82C26.5396 117.103 26.5848 111.935 29.7705 108.815L52.627 86.4311ZM90.2559 74.6928C90.6116 73.3632 92.0899 72.5842 93.3174 73.2025L127.405 90.5697C128.288 91.0299 128.699 92.0701 128.344 92.9975C127.506 95.0654 126.553 97.1048 125.484 99.1049C125.145 99.7398 124.793 100.371 124.431 100.997C124.363 101.114 124.294 101.231 124.226 101.348C123.406 102.743 122.528 104.118 121.591 105.468C121.53 105.556 121.47 105.645 121.408 105.733C121.201 106.029 120.99 106.324 120.776 106.618C120.531 106.956 120.282 107.291 120.031 107.622C118.016 110.288 115.829 112.751 113.499 115.009C113.468 115.039 113.438 115.07 113.407 115.1C112.874 115.615 112.332 116.119 111.784 116.613C111.675 116.711 111.564 116.809 111.454 116.907C110.886 117.411 110.311 117.905 109.729 118.386C109.698 118.411 109.668 118.436 109.638 118.46C108.593 119.32 107.526 120.142 106.438 120.927C106.367 120.978 106.295 121.029 106.225 121.079C105.948 121.277 105.671 121.473 105.392 121.665C105.362 121.686 105.332 121.707 105.303 121.727C101.628 124.246 96.727 122.607 94.7441 118.613L80.5186 89.9584C80.0429 89.0002 80.4107 87.8443 81.2979 87.2465C81.7253 86.9585 82.1446 86.6544 82.5537 86.3344C82.5882 86.3074 82.6229 86.2805 82.6572 86.2533C82.7733 86.1614 82.8884 86.0676 83.0029 85.973C83.0389 85.9433 83.0746 85.9132 83.1104 85.8832C83.5263 85.5352 83.9312 85.1698 84.3242 84.7875C84.3677 84.7452 84.4119 84.7023 84.4551 84.6596C84.5642 84.5517 84.6721 84.442 84.7793 84.3314C84.8035 84.3065 84.8285 84.2823 84.8525 84.2572C85.1118 83.9872 85.3649 83.7088 85.6123 83.4232C85.6501 83.3796 85.6881 83.3354 85.7256 83.2914C85.8118 83.1904 85.8978 83.0887 85.9824 82.9857C86.0219 82.9377 86.0605 82.8887 86.0996 82.8402C86.1849 82.7347 86.2698 82.6284 86.3535 82.5209C86.3903 82.4737 86.4274 82.4259 86.4639 82.3783C86.5766 82.231 86.6882 82.082 86.7979 81.9311C86.9194 81.7637 87.0391 81.5948 87.1553 81.4252C87.2017 81.3574 87.2464 81.2883 87.292 81.2201C87.3615 81.1162 87.4305 81.0123 87.498 80.9076C87.5414 80.8405 87.5854 80.7739 87.6279 80.7064C87.8505 80.3531 88.0606 79.9946 88.2607 79.6332C88.2876 79.5846 88.3143 79.5354 88.3408 79.4867C88.41 79.3596 88.4776 79.2319 88.5439 79.1039C88.5807 79.0329 88.6183 78.9623 88.6543 78.891C88.7021 78.7962 88.7486 78.7002 88.7949 78.6049C88.8605 78.4701 88.9247 78.3343 88.9873 78.1986C89.0469 78.0695 89.1052 77.9399 89.1621 77.81C89.1848 77.7582 89.2082 77.7066 89.2305 77.6547C89.476 77.082 89.6958 76.5016 89.8896 75.9164C89.9086 75.8593 89.9269 75.8017 89.9453 75.7445C90.0577 75.3956 90.1616 75.0451 90.2559 74.6928ZM8.6377 47.6801C10.1304 43.4821 15.0592 41.9281 19.0107 43.9936L47.3623 58.8139C48.3103 59.3094 48.6914 60.4612 48.3252 61.4662C48.1487 61.9503 47.9885 62.4426 47.8457 62.9418C47.8336 62.984 47.8214 63.0265 47.8096 63.0688C47.7697 63.2113 47.7314 63.3548 47.6943 63.4984C47.6827 63.5435 47.6715 63.589 47.6602 63.6342C47.5282 64.1603 47.4156 64.6944 47.3223 65.2348C47.312 65.2944 47.3018 65.3546 47.292 65.4145C47.2672 65.5658 47.2434 65.7181 47.2217 65.8705C47.2168 65.9049 47.2118 65.9396 47.207 65.974C47.156 66.3447 47.1144 66.7188 47.082 67.0951C47.0771 67.1525 47.0728 67.2104 47.0684 67.268C47.058 67.4003 47.048 67.5334 47.04 67.6664C47.0363 67.7284 47.0335 67.7908 47.0303 67.8529C47.0233 67.9885 47.0172 68.1249 47.0127 68.2611C47.0107 68.3208 47.0093 68.381 47.0078 68.4408C47.0032 68.6263 47 68.8128 47 68.9994C47 69.2062 47.0031 69.4132 47.0088 69.6186C47.0111 69.7006 47.0144 69.7829 47.0176 69.8646C47.0224 69.9895 47.0283 70.1144 47.0352 70.2387C47.0396 70.3184 47.0436 70.3984 47.0488 70.4779C47.0765 70.8945 47.1165 71.3082 47.167 71.7182C47.1738 71.7731 47.1813 71.8284 47.1885 71.8832C47.2073 72.0267 47.2275 72.1702 47.249 72.3129C47.261 72.3919 47.2724 72.4714 47.2852 72.5502C47.3021 72.6549 47.3214 72.7595 47.3398 72.8637C47.366 73.0112 47.3938 73.1586 47.4229 73.3051C47.4506 73.4447 47.4794 73.5844 47.5098 73.723C47.5219 73.7783 47.5334 73.834 47.5459 73.8891C47.6838 74.4966 47.8471 75.0948 48.0342 75.682C48.0524 75.7393 48.0711 75.7968 48.0898 75.8539C48.204 76.2024 48.3262 76.5475 48.457 76.8881C48.9507 78.1728 48.2129 79.6717 46.8564 79.893L9.07031 85.8783C8.08543 86.025 7.14144 85.4254 6.88379 84.4662C6.34645 82.3006 5.91816 80.0914 5.60742 77.8451C5.50876 77.1318 5.42265 76.4143 5.34766 75.6938C5.33367 75.5593 5.32077 75.4242 5.30762 75.2895C5.15039 73.679 5.0531 72.0508 5.01758 70.4076C5.01527 70.3007 5.01155 70.1934 5.00977 70.0863C5.00374 69.725 5 69.3621 5 68.9994C5.00001 68.5816 5.00472 68.1643 5.0127 67.7484C5.07679 64.4077 5.39772 61.1295 5.95508 57.933C5.96248 57.8905 5.96907 57.8475 5.97656 57.8051C6.10541 57.0749 6.24701 56.3487 6.40039 55.6273C6.431 55.4834 6.46256 55.3393 6.49414 55.1957C6.65725 54.454 6.83289 53.7166 7.02148 52.9848C7.03119 52.9471 7.04101 52.9091 7.05078 52.8715C7.39066 51.5625 7.7712 50.2695 8.19043 48.9945C8.2176 48.9119 8.24496 48.829 8.27246 48.7465C8.37996 48.4242 8.49008 48.1026 8.60254 47.7826C8.61447 47.7486 8.62571 47.714 8.6377 47.6801ZM107.562 20.1176C108.273 19.42 109.39 19.3505 110.162 19.975C111.87 21.4112 113.514 22.9468 115.086 24.5814C115.585 25.1006 116.076 25.6304 116.561 26.1693C116.651 26.27 116.741 26.3717 116.831 26.473C117.905 27.6834 118.94 28.943 119.935 30.2514C119.999 30.3366 120.065 30.4216 120.13 30.5072C120.347 30.7961 120.564 31.0867 120.777 31.3803C121.023 31.7183 121.264 32.0586 121.502 32.3998C123.414 35.1403 125.081 37.9812 126.509 40.8949C126.528 40.9338 126.547 40.9723 126.566 41.0111C126.891 41.6777 127.204 42.348 127.504 43.0219C127.564 43.1564 127.623 43.2913 127.682 43.4262C127.986 44.1222 128.277 44.8218 128.555 45.5248C128.569 45.5611 128.583 45.5979 128.598 45.6342C129.092 46.8928 129.544 48.1621 129.954 49.4398C129.981 49.5228 130.008 49.6059 130.034 49.6889C130.137 50.0128 130.236 50.3375 130.333 50.6625C130.343 50.697 130.355 50.7315 130.365 50.766C131.625 55.0398 128.551 59.1945 124.14 59.8461L92.4922 64.5209C91.4338 64.6772 90.4486 63.9694 90.1543 62.9408C90.0125 62.4454 89.8528 61.9532 89.6748 61.4652C89.6597 61.4239 89.6442 61.3825 89.6289 61.3412C89.5774 61.2025 89.5242 61.0642 89.4697 60.9262C89.4526 60.8829 89.4354 60.8395 89.418 60.7963C89.2155 60.2931 88.9922 59.7952 88.75 59.3031C88.7232 59.2487 88.6962 59.1934 88.6689 59.1391C88.6001 59.002 88.53 58.865 88.458 58.7289C88.4418 58.6983 88.4255 58.6677 88.4092 58.6371C88.2326 58.3072 88.0466 57.9801 87.8516 57.6566C87.8217 57.6072 87.791 57.5575 87.7607 57.5082C87.6912 57.395 87.6206 57.2817 87.5488 57.1693C87.5154 57.117 87.4812 57.0652 87.4473 57.0131C87.3731 56.8992 87.2982 56.7853 87.2217 56.6723C87.1881 56.6227 87.1541 56.5732 87.1201 56.5238C87.0148 56.371 86.9076 56.2188 86.7979 56.0678C86.6762 55.9004 86.5522 55.7346 86.4268 55.5717C86.3768 55.5067 86.326 55.4426 86.2754 55.3783C86.198 55.2801 86.1197 55.1819 86.041 55.0854C85.9906 55.0235 85.9406 54.961 85.8896 54.8998C85.6224 54.5791 85.3472 54.2681 85.0654 53.9662C85.0275 53.9256 84.9883 53.8854 84.9502 53.8451C84.8507 53.7402 84.7506 53.6362 84.6494 53.5336C84.5932 53.4766 84.5372 53.419 84.4805 53.3627C84.4051 53.2879 84.3282 53.2145 84.252 53.141C84.144 53.0369 84.0345 52.9339 83.9248 52.8324C83.8203 52.7358 83.7154 52.6396 83.6094 52.5453C83.5671 52.5077 83.5249 52.4702 83.4824 52.433C83.0137 52.0225 82.5298 51.6342 82.0332 51.2689C81.9848 51.2333 81.9364 51.1977 81.8877 51.1625C81.5904 50.9477 81.2885 50.741 80.9824 50.5424C79.828 49.7933 79.5438 48.1467 80.5107 47.1703L107.562 20.1176ZM69.4951 4.98574C69.8349 4.98838 70.1746 4.99331 70.5137 5.00137C70.5497 5.00222 70.5861 5.00241 70.6221 5.00332C75.0762 5.12545 78.0774 9.33325 77.334 13.7299L72 45.2729C71.8216 46.3276 70.8445 47.046 69.7754 47.0082C69.2604 46.9899 68.7427 46.9897 68.2236 47.0082C68.1797 47.0098 68.1357 47.0113 68.0918 47.0131C67.9438 47.0193 67.7956 47.0273 67.6475 47.0365C67.6009 47.0394 67.5544 47.0431 67.5078 47.0463C66.9665 47.0834 66.4238 47.1408 65.8809 47.2191C65.821 47.2278 65.7611 47.2364 65.7012 47.2455C65.5494 47.2687 65.3969 47.2933 65.2451 47.3197C65.2109 47.3257 65.1768 47.3322 65.1426 47.3383C64.7741 47.4043 64.4052 47.4802 64.0371 47.5658C63.9811 47.5789 63.9251 47.5924 63.8691 47.6059C63.74 47.637 63.6105 47.669 63.4814 47.7025C63.4212 47.7182 63.361 47.7342 63.3008 47.7504C63.1696 47.7857 63.0383 47.8219 62.9072 47.8598C62.8497 47.8764 62.7919 47.8934 62.7344 47.9105C62.5565 47.9635 62.3787 48.0189 62.2012 48.0766C62.0045 48.1405 61.8089 48.2069 61.6152 48.2758C61.5379 48.3033 61.4606 48.3315 61.3838 48.3598C61.2664 48.403 61.1494 48.4476 61.0332 48.4926C60.9587 48.5214 60.8836 48.5499 60.8096 48.5795C60.422 48.7345 60.0412 48.8999 59.667 49.0746C59.6167 49.0981 59.5667 49.123 59.5166 49.1469C59.3859 49.2091 59.256 49.2727 59.127 49.3373C59.0553 49.3732 58.9832 49.4082 58.9121 49.4447C58.8177 49.4933 58.7243 49.5434 58.6309 49.5932C58.4986 49.6636 58.3677 49.736 58.2373 49.809C58.1129 49.8786 57.9889 49.9491 57.8662 50.0209C57.8175 50.0494 57.7682 50.077 57.7197 50.1059C57.1845 50.4248 56.6658 50.765 56.165 51.1244C56.1161 51.1595 56.0672 51.1954 56.0186 51.2309C55.7224 51.4471 55.4319 51.6701 55.1484 51.8998C54.0792 52.766 52.4254 52.5277 51.7959 51.3061L34.4277 17.2191C33.9839 16.3278 34.2621 15.244 35.0947 14.7025C36.9883 13.5223 38.9567 12.4325 40.9971 11.4428C41.645 11.1285 42.3007 10.8247 42.9629 10.5307C43.0866 10.4758 43.2108 10.4218 43.335 10.3676C44.8181 9.72033 46.3367 9.12501 47.8887 8.5834C47.9896 8.54817 48.0902 8.51172 48.1914 8.47695C48.5333 8.35952 48.8776 8.24338 49.2227 8.13125C49.62 8.00215 50.018 7.87815 50.416 7.75723C53.6131 6.78581 56.8297 6.07823 60.042 5.62051C60.0848 5.61441 60.1281 5.60699 60.1709 5.60098C60.9052 5.49789 61.6395 5.40849 62.373 5.33145C62.5195 5.31607 62.6661 5.30185 62.8125 5.2875C63.5684 5.21341 64.3238 5.15265 65.0781 5.10586C65.1169 5.10346 65.1556 5.10038 65.1943 5.09805C66.5444 5.01678 67.8921 4.97908 69.2344 4.98379C69.3213 4.9841 69.4082 4.98508 69.4951 4.98574Z" fill="#F5F5F5"/>
<circle cx="69" cy="69" r="3" fill="#F5F5F5"/>
<path d="M69 51C78.9411 51 87 59.0589 87 69C87 78.9411 78.9411 87 69 87C59.0589 87 51 78.9411 51 69C51 59.0589 59.0589 51 69 51ZM69 62C65.134 62 62 65.134 62 69C62 72.866 65.134 76 69 76C72.866 76 76 72.866 76 69C76 65.134 72.866 62 69 62Z" fill="#F5F5F5"/>
</svg>
