<svg width="48" height="48" viewBox="0 0 48 48" fill="none" xmlns="http://www.w3.org/2000/svg">
<path d="M26.6 41.45C26.4 41.6167 26.1917 41.75 25.975 41.85C25.7583 41.95 25.5167 42 25.25 42C24.9833 42 24.7167 41.9417 24.45 41.825C24.1833 41.7083 23.95 41.55 23.75 41.35C22.3833 39.8833 21.375 38.3833 20.725 36.85C20.075 35.3167 19.75 33.7 19.75 32C19.75 30.7667 19.9333 29.4667 20.3 28.1C20.6667 26.7333 21.3 24.9667 22.2 22.8C22.9667 20.9 23.5 19.4417 23.8 18.425C24.1 17.4083 24.25 16.4667 24.25 15.6C24.25 14.4667 24 13.4083 23.5 12.425C23 11.4417 22.2167 10.45 21.15 9.45C20.95 9.25 20.7917 9.01667 20.675 8.75C20.5583 8.48333 20.5 8.21667 20.5 7.95C20.5 7.68333 20.55 7.44167 20.65 7.225C20.75 7.00833 20.8833 6.8 21.05 6.6C21.25 6.4 21.475 6.25 21.725 6.15C21.975 6.05 22.2333 6 22.5 6C22.7667 6 23.0167 6.05 23.25 6.15C23.4833 6.25 23.7 6.38333 23.9 6.55C25.3667 7.91667 26.4583 9.35 27.175 10.85C27.8917 12.35 28.25 13.9333 28.25 15.6C28.25 16.7667 28.075 17.9917 27.725 19.275C27.375 20.5583 26.7667 22.2333 25.9 24.3C25.0667 26.3 24.5 27.8333 24.2 28.9C23.9 29.9667 23.75 30.9833 23.75 31.95C23.75 33.1167 23.9917 34.2417 24.475 35.325C24.9583 36.4083 25.7 37.5 26.7 38.6C26.8667 38.8 27 39.0167 27.1 39.25C27.2 39.4833 27.25 39.7333 27.25 40C27.25 40.2667 27.2 40.525 27.1 40.775C27 41.025 26.8333 41.25 26.6 41.45ZM36.35 41.45C36.15 41.6167 35.9417 41.75 35.725 41.85C35.5083 41.95 35.2667 42 35 42C34.7333 42 34.4667 41.9417 34.2 41.825C33.9333 41.7083 33.7 41.55 33.5 41.35C32.1333 39.8833 31.125 38.3917 30.475 36.875C29.825 35.3583 29.5 33.75 29.5 32.05C29.5 30.8167 29.6833 29.5 30.05 28.1C30.4167 26.7 31.05 24.9333 31.95 22.8C32.7167 20.9 33.25 19.45 33.55 18.45C33.85 17.45 34 16.5167 34 15.65C34 14.5167 33.75 13.4417 33.25 12.425C32.75 11.4083 31.9667 10.4167 30.9 9.45C30.7 9.25 30.55 9.025 30.45 8.775C30.35 8.525 30.3 8.26667 30.3 8C30.3 7.73333 30.3417 7.49167 30.425 7.275C30.5083 7.05833 30.6333 6.85 30.8 6.65C31 6.45 31.2333 6.29167 31.5 6.175C31.7667 6.05833 32.0333 6 32.3 6C32.5667 6 32.8083 6.05 33.025 6.15C33.2417 6.25 33.45 6.38333 33.65 6.55C35.1167 7.91667 36.2083 9.35 36.925 10.85C37.6417 12.35 38 13.9333 38 15.6C38 16.7667 37.825 17.9917 37.475 19.275C37.125 20.5583 36.5167 22.25 35.65 24.35C34.8167 26.35 34.25 27.8833 33.95 28.95C33.65 30.0167 33.5 31.0167 33.5 31.95C33.5 33.1167 33.75 34.2583 34.25 35.375C34.75 36.4917 35.5 37.5833 36.5 38.65C36.6667 38.85 36.7917 39.0667 36.875 39.3C36.9583 39.5333 37 39.7667 37 40C37 40.2667 36.95 40.5333 36.85 40.8C36.75 41.0667 36.5833 41.2833 36.35 41.45ZM16.85 41.45C16.65 41.6167 16.4417 41.75 16.225 41.85C16.0083 41.95 15.7667 42 15.5 42C15.2333 42 14.9667 41.9417 14.7 41.825C14.4333 41.7083 14.2 41.55 14 41.35C12.6333 39.8833 11.625 38.3917 10.975 36.875C10.325 35.3583 10 33.75 10 32.05C10 30.8167 10.1833 29.5 10.55 28.1C10.9167 26.7 11.55 24.9333 12.45 22.8C13.2167 20.9 13.75 19.45 14.05 18.45C14.35 17.45 14.5 16.5167 14.5 15.65C14.5 14.5167 14.25 13.4417 13.75 12.425C13.25 11.4083 12.4667 10.4167 11.4 9.45C11.1667 9.25 11 9.025 10.9 8.775C10.8 8.525 10.75 8.26667 10.75 8C10.75 7.73333 10.8 7.48333 10.9 7.25C11 7.01667 11.1333 6.8 11.3 6.6C11.5 6.4 11.725 6.25 11.975 6.15C12.225 6.05 12.4833 6 12.75 6C13.0167 6 13.2667 6.05 13.5 6.15C13.7333 6.25 13.95 6.38333 14.15 6.55C15.6167 7.91667 16.7083 9.34167 17.425 10.825C18.1417 12.3083 18.5 13.9 18.5 15.6C18.5 16.7667 18.3333 17.9917 18 19.275C17.6667 20.5583 17.0667 22.2333 16.2 24.3C15.3667 26.3 14.8 27.8333 14.5 28.9C14.2 29.9667 14.05 30.9833 14.05 31.95C14.05 33.1167 14.2917 34.2583 14.775 35.375C15.2583 36.4917 16 37.5833 17 38.65C17.1667 38.85 17.2917 39.0667 17.375 39.3C17.4583 39.5333 17.5 39.7667 17.5 40C17.5 40.2667 17.45 40.5333 17.35 40.8C17.25 41.0667 17.0833 41.2833 16.85 41.45Z" fill="#E3E3E3"/>
</svg>
