<svg width="24" height="24" viewBox="0 0 24 24" fill="none" xmlns="http://www.w3.org/2000/svg">
<path d="M7 23C6.45 23 5.97917 22.8042 5.5875 22.4125C5.19583 22.0208 5 21.55 5 21V3C5 2.45 5.19583 1.97917 5.5875 1.5875C5.97917 1.19583 6.45 1 7 1H17C17.55 1 18.0208 1.19583 18.4125 1.5875C18.8042 1.97917 19 2.45 19 3V6.1C19.3 6.21667 19.5417 6.4 19.725 6.65C19.9083 6.9 20 7.18333 20 7.5V9.5C20 9.81667 19.9083 10.1 19.725 10.35C19.5417 10.6 19.3 10.7833 19 10.9V21C19 21.55 18.8042 22.0208 18.4125 22.4125C18.0208 22.8042 17.55 23 17 23H7ZM10 20H14C14.2833 20 14.5208 19.9042 14.7125 19.7125C14.9042 19.5208 15 19.2833 15 19C15 18.7167 14.9042 18.4792 14.7125 18.2875C14.5208 18.0958 14.2833 18 14 18H10C9.71667 18 9.47917 18.0958 9.2875 18.2875C9.09583 18.4792 9 18.7167 9 19C9 19.2833 9.09583 19.5208 9.2875 19.7125C9.47917 19.9042 9.71667 20 10 20Z" fill="#183AE4"/>
</svg>
