<svg width="134" height="40" viewBox="0 0 134 40" fill="none" xmlns="http://www.w3.org/2000/svg">
<path d="M130.196 16.5652C130.128 15.8777 129.835 15.3436 129.318 14.9629C128.801 14.5822 128.1 14.3919 127.213 14.3919C126.611 14.3919 126.103 14.4771 125.688 14.6476C125.273 14.8123 124.955 15.0424 124.733 15.3379C124.517 15.6333 124.409 15.9686 124.409 16.3436C124.398 16.6561 124.463 16.9288 124.605 17.1618C124.753 17.3947 124.955 17.5964 125.21 17.7669C125.466 17.9316 125.762 18.0765 126.097 18.2015C126.432 18.3208 126.79 18.4231 127.171 18.5083L128.739 18.8833C129.5 19.0538 130.199 19.2811 130.835 19.5652C131.472 19.8493 132.023 20.1987 132.489 20.6135C132.955 21.0282 133.316 21.5169 133.571 22.0794C133.833 22.6419 133.966 23.2868 133.972 24.014C133.966 25.0822 133.693 26.0083 133.154 26.7924C132.62 27.5708 131.847 28.176 130.835 28.6078C129.83 29.0339 128.617 29.247 127.196 29.247C125.787 29.247 124.56 29.0311 123.514 28.5993C122.475 28.1674 121.662 27.5282 121.077 26.6816C120.497 25.8294 120.193 24.7754 120.165 23.5197H123.736C123.776 24.1049 123.943 24.5936 124.239 24.9856C124.54 25.372 124.941 25.6646 125.441 25.8635C125.946 26.0566 126.517 26.1532 127.154 26.1532C127.779 26.1532 128.321 26.0623 128.782 25.8805C129.247 25.6987 129.608 25.4458 129.864 25.122C130.12 24.7981 130.247 24.426 130.247 24.0055C130.247 23.6135 130.131 23.2839 129.898 23.0169C129.671 22.7498 129.335 22.5226 128.892 22.3351C128.455 22.1476 127.918 21.9771 127.282 21.8237L125.381 21.3464C123.909 20.9885 122.747 20.4288 121.895 19.6674C121.043 18.9061 120.62 17.8805 120.625 16.5907C120.62 15.5339 120.901 14.6106 121.469 13.8208C122.043 13.0311 122.83 12.4146 123.83 11.9714C124.83 11.5282 125.966 11.3066 127.239 11.3066C128.534 11.3066 129.665 11.5282 130.631 11.9714C131.603 12.4146 132.358 13.0311 132.898 13.8208C133.438 14.6106 133.716 15.5254 133.733 16.5652H130.196Z" fill="black"/>
<path d="M117.691 11.5459V29.0004H114.001V11.5459H117.691Z" fill="black"/>
<path d="M97.3057 14.5885V11.5459H111.641V14.5885H106.297V29.0004H102.649V14.5885H97.3057Z" fill="black"/>
<path d="M85.1586 29.0004H81.2041L87.2297 11.5459H91.9854L98.0024 29.0004H94.0479L89.6757 15.5345H89.5393L85.1586 29.0004ZM84.9115 22.1396H94.2524V25.0203H84.9115V22.1396Z" fill="black"/>
<path d="M69.6707 11.5459L73.8895 24.8073H74.0514L78.2787 11.5459H82.3696L76.3525 29.0004H71.5969L65.5713 11.5459H69.6707Z" fill="black"/>
<path d="M0.185405 10.571C-0.231756 10.9879 0.185405 11.6095 0.185405 11.6095C0.185405 11.6095 21.503 39.3887 21.861 39.7463C22.2189 40.104 22.8425 40.0654 23.1618 39.7463L43.9918 18.932C44.2524 18.6716 44.876 18.0485 43.9918 18.0485H36.5615L22.4268 31.7571L1.22472 10.571C1.22472 10.571 0.602566 10.1542 0.185405 10.571Z" fill="url(#paint0_linear_2507_107)"/>
<path d="M0.185618 10.571C0.60278 10.1542 1.22494 10.571 1.22494 10.571L22.427 31.7572L36.5618 18.0485H43.9917C44.8759 18.0485 44.2523 18.6716 43.9917 18.932L23.1619 39.7462C22.8626 40.0453 22.2959 40.0979 21.9313 39.8087L21.8611 39.7462C21.6821 39.5674 16.2631 32.5333 10.889 25.5438L0.185618 11.6095C0.185618 11.6095 -0.206181 11.0258 0.148673 10.6104L0.185618 10.571ZM0.627734 11.0091C0.627192 11.0096 0.6272 11.0109 0.626516 11.0116C0.625832 11.0123 0.624587 11.0123 0.62408 11.0128C0.622814 11.022 0.622211 11.0485 0.633824 11.0947C0.645612 11.1416 0.665006 11.1885 0.68376 11.2258C0.690388 11.239 0.696554 11.2496 0.700811 11.257C0.710775 11.27 0.724392 11.2876 0.74141 11.3097C0.781744 11.3623 0.841551 11.4405 0.919636 11.5422C1.07585 11.7457 1.30502 12.0444 1.59682 12.4246C2.1804 13.1848 3.01445 14.2714 4.01648 15.5763C6.02056 18.1861 8.6965 21.6695 11.3835 25.1641C14.0705 28.6587 16.7685 32.1643 18.817 34.8184C19.8413 36.1455 20.703 37.2592 21.3195 38.0521C21.6279 38.4487 21.8741 38.7645 22.0487 38.9859C22.136 39.0968 22.2042 39.1828 22.2529 39.2431C22.2842 39.282 22.3013 39.3023 22.3081 39.3105L22.3377 39.3336C22.3793 39.3598 22.4384 39.3785 22.5135 39.377C22.6184 39.3749 22.692 39.3346 22.721 39.3056L43.3701 18.6716H36.8143L22.4201 32.6318L0.840876 11.0688C0.803539 11.05 0.756659 11.0307 0.709743 11.0189C0.663493 11.0073 0.636944 11.0079 0.627734 11.0091Z" fill="#F4D8BE"/>
<path d="M58.8146 29.429C59.2318 29.0121 58.8146 28.3905 58.8146 28.3905C58.8146 28.3905 37.497 0.611326 37.139 0.253655C36.7811 -0.104017 36.1575 -0.065395 35.8382 0.253655L15.0082 21.068C14.7476 21.3284 14.124 21.9515 15.0082 21.9515H30.1402L34.2975 17.8625L27.2301 17.7075L36.5732 8.24288L57.7753 29.429C57.7753 29.429 58.3974 29.8458 58.8146 29.429Z" fill="url(#paint1_linear_2507_107)"/>
<path d="M58.8144 29.429C58.3972 29.8458 57.7751 29.429 57.7751 29.429L36.573 8.24284L27.2301 17.7077L34.2974 17.8627L30.1402 21.9515H15.0083C14.1241 21.9515 14.7477 21.3284 15.0083 21.068L35.8381 0.253812C36.1374 -0.0452645 36.7041 -0.0978564 37.0687 0.191338L37.1389 0.253812C37.3179 0.432648 42.7369 7.46673 48.111 14.4562L58.8144 28.3905C58.8144 28.3905 59.2062 28.9742 58.8513 29.3896L58.8144 29.429ZM58.3723 28.9909C58.3728 28.9904 58.3728 28.9891 58.3735 28.9884C58.3742 28.9877 58.3754 28.9877 58.3759 28.9872C58.3772 28.978 58.3778 28.9515 58.3662 28.9053C58.3544 28.8584 58.335 28.8115 58.3162 28.7742C58.3096 28.761 58.3034 28.7504 58.2992 28.743C58.2892 28.73 58.2756 28.7124 58.2586 28.6903C58.2183 28.6377 58.1584 28.5595 58.0804 28.4578C57.9241 28.2543 57.695 27.9556 57.4032 27.5754C56.8196 26.8152 55.9855 25.7286 54.9835 24.4237C52.9794 21.8139 50.3035 18.3305 47.6165 14.8359C44.9295 11.3413 42.2315 7.83571 40.183 5.18159C39.1587 3.85446 38.297 2.74085 37.6805 1.94793C37.3721 1.55132 37.1259 1.23555 36.9513 1.01405C36.864 0.903198 36.7958 0.81718 36.7471 0.756854C36.7158 0.717973 36.6987 0.697736 36.6919 0.689511L36.6623 0.666387C36.6207 0.640226 36.5616 0.621472 36.4865 0.62298C36.3816 0.625104 36.308 0.665413 36.279 0.694379L15.6299 21.3284H29.8848L32.8079 18.4538L25.7705 18.2988L36.5701 7.35887L58.1591 28.9312C58.1965 28.95 58.2433 28.9693 58.2903 28.9811C58.3365 28.9927 58.3631 28.9921 58.3723 28.9909Z" fill="#DDD0F6"/>
<path d="M17.4609 20.5635L36.3765 1.66211V2.70065L20.1632 18.9018L17.4609 20.5635Z" fill="white"/>
<path d="M22.8652 33.4408L36.7919 19.5244V20.563L23.9046 33.4408H22.8652Z" fill="white"/>
<defs>
<linearGradient id="paint0_linear_2507_107" x1="44.4494" y1="25.193" x2="0" y2="25.193" gradientUnits="userSpaceOnUse">
<stop stop-color="#D10701"/>
<stop offset="0.759615" stop-color="#D10701"/>
<stop offset="1" stop-color="#480005"/>
</linearGradient>
<linearGradient id="paint1_linear_2507_107" x1="14.5506" y1="14.807" x2="59" y2="14.807" gradientUnits="userSpaceOnUse">
<stop stop-color="#060A6E"/>
<stop offset="1" stop-color="#02086C"/>
</linearGradient>
</defs>
</svg>
