<svg width="435" height="435" viewBox="0 0 435 435" fill="none" xmlns="http://www.w3.org/2000/svg">
<rect x="75" y="76" width="284" height="284" rx="15" stroke="black" stroke-width="2"/>
<rect x="74" y="91" width="286" height="2" fill="black"/>
<rect x="74" y="343" width="286" height="2" fill="black"/>
<rect x="126" y="1" width="12" height="433" fill="url(#paint0_linear_2409_160)" stroke="url(#paint1_linear_2409_160)" stroke-width="2"/>
<rect x="121" y="102" width="22" height="20" rx="3" fill="white" stroke="black" stroke-width="2"/>
<rect x="121" y="318" width="22" height="20" rx="3" fill="white" stroke="black" stroke-width="2"/>
<rect x="117" y="132" width="30" height="11" rx="3" fill="white" stroke="black" stroke-width="2"/>
<rect x="117" y="209" width="30" height="11" rx="3" fill="white" stroke="black" stroke-width="2"/>
<rect x="117" y="300" width="30" height="11" rx="3" fill="white" stroke="black" stroke-width="2"/>
<circle cx="132" cy="162" r="23" fill="white" stroke="black" stroke-width="2"/>
<circle cx="132" cy="274" r="29" fill="white" stroke="black" stroke-width="2"/>
<circle cx="132" cy="148" r="1" stroke="black" stroke-width="2"/>
<circle cx="118" cy="162" r="1" stroke="black" stroke-width="2"/>
<circle cx="146" cy="162" r="1" stroke="black" stroke-width="2"/>
<circle cx="132" cy="274" r="24" fill="black"/>
<rect x="211" y="1" width="12" height="433" fill="url(#paint2_linear_2409_160)" stroke="url(#paint3_linear_2409_160)" stroke-width="2"/>
<rect x="206" y="102" width="22" height="20" rx="3" fill="white" stroke="black" stroke-width="2"/>
<rect x="206" y="318" width="22" height="20" rx="3" fill="white" stroke="black" stroke-width="2"/>
<rect x="202" y="132" width="30" height="11" rx="3" fill="white" stroke="black" stroke-width="2"/>
<rect x="202" y="209" width="30" height="11" rx="3" fill="white" stroke="black" stroke-width="2"/>
<rect x="202" y="300" width="30" height="11" rx="3" fill="white" stroke="black" stroke-width="2"/>
<circle cx="217" cy="162" r="23" fill="white" stroke="black" stroke-width="2"/>
<circle cx="217" cy="274" r="29" fill="white" stroke="black" stroke-width="2"/>
<circle cx="217" cy="274" r="24" fill="black"/>
<circle cx="217" cy="148" r="1" stroke="black" stroke-width="2"/>
<circle cx="203" cy="162" r="1" stroke="black" stroke-width="2"/>
<circle cx="231" cy="162" r="1" stroke="black" stroke-width="2"/>
<rect x="296" y="1" width="12" height="433" fill="url(#paint4_linear_2409_160)" stroke="url(#paint5_linear_2409_160)" stroke-width="2"/>
<rect x="291" y="102" width="22" height="20" rx="3" fill="white" stroke="black" stroke-width="2"/>
<rect x="291" y="318" width="22" height="20" rx="3" fill="white" stroke="black" stroke-width="2"/>
<rect x="287" y="132" width="30" height="11" rx="3" fill="white" stroke="black" stroke-width="2"/>
<rect x="287" y="209" width="30" height="11" rx="3" fill="white" stroke="black" stroke-width="2"/>
<rect x="287" y="300" width="30" height="11" rx="3" fill="white" stroke="black" stroke-width="2"/>
<circle cx="302" cy="162" r="23" fill="white" stroke="black" stroke-width="2"/>
<circle cx="302" cy="274" r="29" fill="white" stroke="black" stroke-width="2"/>
<circle cx="302" cy="274" r="24" fill="black"/>
<circle cx="302" cy="148" r="1" stroke="black" stroke-width="2"/>
<circle cx="288" cy="162" r="1" stroke="black" stroke-width="2"/>
<circle cx="316" cy="162" r="1" stroke="black" stroke-width="2"/>
<defs>
<linearGradient id="paint0_linear_2409_160" x1="132" y1="0" x2="132" y2="435" gradientUnits="userSpaceOnUse">
<stop stop-color="#FFACAE" stop-opacity="0"/>
<stop offset="0.178413" stop-color="#FFACAE"/>
<stop offset="0.828482" stop-color="#FFACAE"/>
<stop offset="1" stop-color="#FFACAE" stop-opacity="0"/>
</linearGradient>
<linearGradient id="paint1_linear_2409_160" x1="132" y1="0" x2="132" y2="435" gradientUnits="userSpaceOnUse">
<stop offset="0.0384615" stop-opacity="0"/>
<stop offset="0.177885"/>
<stop offset="0.826923"/>
<stop offset="0.961538" stop-opacity="0"/>
</linearGradient>
<linearGradient id="paint2_linear_2409_160" x1="217" y1="0" x2="217" y2="435" gradientUnits="userSpaceOnUse">
<stop stop-color="#B6B2FF" stop-opacity="0"/>
<stop offset="0.178413" stop-color="#B6B2FF"/>
<stop offset="0.828482" stop-color="#B6B2FF"/>
<stop offset="1" stop-color="#B6B2FF" stop-opacity="0"/>
</linearGradient>
<linearGradient id="paint3_linear_2409_160" x1="217" y1="0" x2="217" y2="435" gradientUnits="userSpaceOnUse">
<stop offset="0.0384615" stop-opacity="0"/>
<stop offset="0.177885"/>
<stop offset="0.826923"/>
<stop offset="0.961538" stop-opacity="0"/>
</linearGradient>
<linearGradient id="paint4_linear_2409_160" x1="302" y1="0" x2="302" y2="435" gradientUnits="userSpaceOnUse">
<stop stop-color="#FFACAE" stop-opacity="0"/>
<stop offset="0.178413" stop-color="#FFACAE"/>
<stop offset="0.828482" stop-color="#FFACAE"/>
<stop offset="1" stop-color="#FFACAE" stop-opacity="0"/>
</linearGradient>
<linearGradient id="paint5_linear_2409_160" x1="302" y1="0" x2="302" y2="435" gradientUnits="userSpaceOnUse">
<stop offset="0.0384615" stop-opacity="0"/>
<stop offset="0.177885"/>
<stop offset="0.826923"/>
<stop offset="0.961538" stop-opacity="0"/>
</linearGradient>
</defs>
</svg>
