<svg width="48" height="48" viewBox="0 0 48 48" fill="none" xmlns="http://www.w3.org/2000/svg">
<g clip-path="url(#clip0_2337_2789)">
<path d="M10.7 26C13.08 26 13.54 28 17.36 28C21.26 28 21.54 26 24.02 26C26.4 26 26.86 28 30.68 28C34.58 28 34.86 26 37.34 26C39.2 26 39.44 26.9 41.36 27.58C42.62 28.02 43.96 27.1 43.96 25.76C43.96 24.72 43.5 24.1 42.68 23.82C41.48 23.38 40.38 22.02 37.3 22.02C33.4 22.02 33.12 24.02 30.64 24.02C28.26 24.02 27.8 22.02 23.98 22.02C20.08 22.02 19.8 24.02 17.32 24.02C14.94 24.02 14.48 22.02 10.66 22.02C7.58 22.02 6.4 23.44 5.3 23.84C4.48 24.1 4 24.7 4 25.78C4 27.12 5.32 28.04 6.58 27.6C8.7 26.88 8.78 26 10.7 26ZM37.34 30C33.44 30 33.16 32 30.68 32C28.3 32 27.84 30 24.02 30C20.12 30 19.82 32 17.34 32C14.86 32 14.58 30 10.68 30C7.62 30 6.38 31.42 5.3 31.82C4.48 32.1 4 32.72 4 33.78C4 35.12 5.32 36.04 6.6 35.6C8.64 34.88 8.76 34 10.68 34C13.16 34 13.44 36 17.34 36C21.24 36 21.54 34 24.02 34C26.4 34 26.86 36 30.68 36C34.56 36 34.86 34 37.34 34C39.22 34 39.46 34.92 41.4 35.6C42.66 36.04 44 35.12 44 33.78C44 32.72 43.52 32.12 42.7 31.82C41.64 31.44 40.42 30 37.34 30ZM10.7 18C13.08 18 13.54 20 17.36 20C21.26 20 21.54 18 24.02 18C26.4 18 26.86 20 30.68 20C34.58 20 34.86 18 37.34 18C39.2 18 39.44 18.9 41.36 19.58C42.62 20.02 43.96 19.1 43.96 17.76C43.96 16.72 43.5 16.1 42.68 15.82C41.48 15.36 40.38 14 37.3 14C33.4 14 33.12 16 30.64 16C28.26 16 27.8 14 23.98 14C20.08 14 19.8 16 17.32 16C14.94 16 14.48 14 10.66 14C7.58 14 6.4 15.42 5.3 15.82C4.48 16.1 4 16.7 4 17.78C4 19.12 5.32 20.04 6.58 19.6C8.7 18.88 8.78 18 10.7 18Z" fill="white"/>
</g>
<defs>
<clipPath id="clip0_2337_2789">
<rect width="48" height="48" fill="white"/>
</clipPath>
</defs>
</svg>
